# File created by Blade
# Date/Time:  Thu Jan 22 16:00:44 2015
# Frame Rate: 120.000 fps
#------------------------------------------------------
:FULLY-SPECIFIED
:DEGREES
644
root 3.041583 36.972813 -2.061043 36.247244 -2.074655 0.862985
RightUpLeg -48.395132 0.804280 -5.241137
RightLeg 8.819621 -0.000000 -0.000000
RightFoot -4.435668 -16.843000 16.112838
RightToeBase 12.634215 -0.000000 -0.000000
LeftUpLeg -50.083186 1.560805 3.305882
LeftLeg 9.742740 -0.000000 -0.000000
LeftFoot 0.297778 15.109499 -18.443037
LeftToeBase 9.526662 -0.000000 -0.000000
Spine 77.835513 -2.416065 -8.236178
RightShoulder -19.084412 -60.095227 -22.011352
RightArm -15.860790 -4.316386 83.206868
RightForeArm 8.639401 -0.000000 5.656600
RightHand -12.886236 -0.000000 44.515850
RightHandThumb1 -24.326973 -0.000000 -32.862282
LeftShoulder -92.195275 63.904178 -52.035806
LeftArm 8.709536 0.741437 -82.794855
LeftForeArm 36.692141 -0.000000 -4.173143
LeftHand -14.646836 -0.000000 -52.462212
LeftHandThumb1 -26.253704 0.000000 33.147579
Head 8.081278 16.661912 -1.801875
645
root 3.019078 36.988520 -2.047600 35.866871 -2.074892 0.866879
RightUpLeg -47.753789 0.803966 -5.162878
RightLeg 8.336751 -0.000000 -0.000000
RightFoot -4.245990 -16.844016 16.083148
RightToeBase 12.641693 -0.000000 -0.000000
LeftUpLeg -49.458384 1.640361 3.265180
LeftLeg 9.300626 -0.000000 -0.000000
LeftFoot 0.513282 15.039585 -18.455563
LeftToeBase 9.681450 -0.000000 -0.000000
Spine 77.786483 -2.396849 -8.202736
RightShoulder -19.083462 -60.065216 -21.992529
RightArm -15.916437 -4.261138 83.101811
RightForeArm 8.558931 -0.000000 5.624982
RightHand -12.811880 -0.000000 44.484505
RightHandThumb1 -24.326973 -0.000000 -32.862282
LeftShoulder -92.384083 63.843841 -52.193224
LeftArm 8.719440 0.735766 -82.712831
LeftForeArm 36.751112 0.000000 -4.152230
LeftHand -14.678135 -0.000000 -52.550901
LeftHandThumb1 -26.253704 0.000000 33.147579
Head 7.961345 16.739415 -1.735038
646
root 2.997416 37.001076 -2.030783 35.471432 -2.079054 0.886467
RightUpLeg -47.113388 0.715132 -4.996333
RightLeg 7.913368 -0.000000 -0.000000
RightFoot -4.071103 -16.788605 15.841448
RightToeBase 12.620548 -0.000000 -0.000000
LeftUpLeg -48.814055 1.701025 3.222305
LeftLeg 8.859321 -0.000000 -0.000000
LeftFoot 0.730653 14.975389 -18.430229
LeftToeBase 9.732906 -0.000000 -0.000000
Spine 77.760647 -2.401359 -8.211264
RightShoulder -19.029093 -60.039628 -22.056449
RightArm -15.964802 -4.272342 83.032358
RightForeArm 8.392869 0.000000 5.589421
RightHand -12.834142 -0.000000 44.811017
RightHandThumb1 -24.326973 -0.000000 -32.862282
LeftShoulder -92.403417 63.800018 -52.210469
LeftArm 8.636853 0.794556 -82.641048
LeftForeArm 36.728399 -0.000000 -4.159398
LeftHand -14.653746 -0.000000 -52.518565
LeftHandThumb1 -26.253704 0.000000 33.147579
Head 7.849206 16.897107 -1.753239
647
root 2.979197 37.013202 -2.016330 35.108901 -2.074579 0.904396
RightUpLeg -46.514893 0.585145 -4.826452
RightLeg 7.488040 -0.000000 -0.000000
RightFoot -3.861981 -16.657590 15.693982
RightToeBase 12.581189 -0.000000 -0.000000
LeftUpLeg -48.209479 1.758204 3.181452
LeftLeg 8.422262 -0.000000 -0.000000
LeftFoot 0.940190 14.899480 -18.419027
LeftToeBase 9.846441 -0.000000 -0.000000
Spine 77.692991 -2.452690 -8.228794
RightShoulder -18.899736 -60.071626 -22.200641
RightArm -16.010409 -4.286792 82.993983
RightForeArm 8.488437 -0.000000 5.601006
RightHand -12.902039 -0.000000 44.717744
RightHandThumb1 -24.326973 -0.000000 -32.862282
LeftShoulder -92.471972 63.810615 -52.280546
LeftArm 8.537851 0.813305 -82.620966
LeftForeArm 36.700470 0.000000 -4.143580
LeftHand -14.692948 0.000000 -52.505524
LeftHandThumb1 -26.253704 0.000000 33.147579
Head 7.818687 16.972799 -1.835064
648
root 2.957547 37.026046 -2.001536 34.748917 -2.085582 0.911505
RightUpLeg -45.922938 0.555139 -4.739567
RightLeg 7.065798 -0.000000 -0.000000
RightFoot -3.673116 -16.583791 15.668063
RightToeBase 12.481257 -0.000000 -0.000000
LeftUpLeg -47.608640 1.840875 3.133291
LeftLeg 7.989845 -0.000000 -0.000000
LeftFoot 1.172361 14.842677 -18.324633
LeftToeBase 9.917441 -0.000000 -0.000000
Spine 77.640561 -2.463797 -8.261570
RightShoulder -18.745463 -60.097063 -22.379639
RightArm -16.028710 -4.136249 82.933049
RightForeArm 8.276753 -0.000000 5.559998
RightHand -12.880440 0.000000 44.733196
RightHandThumb1 -24.326973 -0.000000 -32.862282
LeftShoulder -92.799267 63.801668 -52.635911
LeftArm 8.578747 0.833771 -82.587161
LeftForeArm 36.661401 0.000000 -4.155326
LeftHand -14.644054 -0.000000 -52.461913
LeftHandThumb1 -26.253704 0.000000 33.147579
Head 7.736970 17.057612 -1.864586
649
root 2.936816 37.035553 -1.984942 34.366471 -2.079725 0.918695
RightUpLeg -45.314287 0.478678 -4.603012
RightLeg 6.675141 -0.000000 -0.000000
RightFoot -3.503743 -16.488369 15.494997
RightToeBase 12.418796 -0.000000 -0.000000
LeftUpLeg -46.998461 1.904315 3.097997
LeftLeg 7.582976 -0.000000 -0.000000
LeftFoot 1.368073 14.787993 -18.264856
LeftToeBase 9.982755 -0.000000 -0.000000
Spine 77.642160 -2.489656 -8.240147
RightShoulder -18.747927 -60.102045 -22.415141
RightArm -16.092916 -4.220113 82.893745
RightForeArm 8.431439 0.000000 5.566655
RightHand -12.858433 -0.000000 44.569324
RightHandThumb1 -24.326973 -0.000000 -32.862282
LeftShoulder -93.156649 63.767867 -53.045311
LeftArm 8.663350 0.835598 -82.489200
LeftForeArm 36.672292 -0.000000 -4.124419
LeftHand -14.631577 -0.000000 -52.582606
LeftHandThumb1 -26.253704 0.000000 33.147579
Head 7.613042 17.119549 -1.914039
650
root 2.916669 37.044873 -1.968911 33.993149 -2.070958 0.939693
RightUpLeg -44.728436 0.349248 -4.439880
RightLeg 6.317786 -0.000000 -0.000000
RightFoot -3.348062 -16.345365 15.335131
RightToeBase 12.364601 -0.000000 -0.000000
LeftUpLeg -46.407023 1.952574 3.056995
LeftLeg 7.187144 -0.000000 -0.000000
LeftFoot 1.600220 14.728091 -18.222160
LeftToeBase 9.842500 -0.000000 -0.000000
Spine 77.643799 -2.512164 -8.208311
RightShoulder -18.772711 -60.144510 -22.406866
RightArm -16.127079 -4.072131 82.808912
RightForeArm 8.309065 -0.000000 5.537965
RightHand -12.832333 0.000000 44.510866
RightHandThumb1 -24.326973 -0.000000 -32.862282
LeftShoulder -93.493641 63.785026 -53.411834
LeftArm 8.771254 0.832286 -82.422750
LeftForeArm 36.622866 0.000000 -4.133338
LeftHand -14.663217 -0.000000 -52.653366
LeftHandThumb1 -26.253704 0.000000 33.147579
Head 7.448827 17.087060 -2.046971
651
root 2.893892 37.052965 -1.952606 33.636696 -2.065146 0.940865
RightUpLeg -44.144487 0.266037 -4.291464
RightLeg 5.925831 -0.000000 -0.000000
RightFoot -3.180907 -16.226405 15.191379
RightToeBase 12.322597 -0.000000 -0.000000
LeftUpLeg -45.835636 2.018973 3.033221
LeftLeg 6.796093 -0.000000 -0.000000
LeftFoot 1.797792 14.680319 -18.173343
LeftToeBase 9.991284 -0.000000 -0.000000
Spine 77.644122 -2.538790 -8.219299
RightShoulder -18.736614 -60.161037 -22.475633
RightArm -16.144769 -4.120333 82.765176
RightForeArm 8.252603 -0.000000 5.497743
RightHand -12.925113 -0.000000 44.838415
RightHandThumb1 -24.326973 -0.000000 -32.862282
LeftShoulder -93.685456 63.756411 -53.674229
LeftArm 8.749555 0.781796 -82.341361
LeftForeArm 36.662822 -0.000000 -4.067104
LeftHand -14.628067 -0.000000 -52.772504
LeftHandThumb1 -26.253704 0.000000 33.147579
Head 7.304714 17.156573 -2.085558
652
root 2.872631 37.060640 -1.935871 33.281773 -2.044313 0.940619
RightUpLeg -43.573042 0.177156 -4.144453
RightLeg 5.559894 -0.000000 -0.000000
RightFoot -3.066616 -16.092225 15.100221
RightToeBase 12.402868 -0.000000 -0.000000
LeftUpLeg -45.277776 2.057349 3.030082
LeftLeg 6.430746 -0.000000 -0.000000
LeftFoot 1.976113 14.655570 -18.119096
LeftToeBase 10.012556 -0.000000 -0.000000
Spine 77.660412 -2.578629 -8.199264
RightShoulder -18.748396 -60.131470 -22.485171
RightArm -16.231793 -4.120883 82.694068
RightForeArm 8.320709 0.000000 5.481787
RightHand -12.861376 0.000000 44.588025
RightHandThumb1 -24.326973 -0.000000 -32.862282
LeftShoulder -93.813677 63.738819 -53.822834
LeftArm 8.765734 0.830917 -82.248169
LeftForeArm 36.579472 -0.000000 -4.137442
LeftHand -14.559886 -0.000000 -52.729372
LeftHandThumb1 -26.253704 0.000000 33.147579
Head 7.141146 17.076308 -2.234763
653
root 2.851178 37.068448 -1.921847 32.955517 -2.016351 0.932697
RightUpLeg -43.060272 0.127376 -4.028531
RightLeg 5.234110 -0.000000 -0.000000
RightFoot -2.874773 -16.055132 14.955665
RightToeBase 12.229986 -0.000000 -0.000000
LeftUpLeg -44.757752 2.056065 3.074763
LeftLeg 6.082495 -0.000000 -0.000000
LeftFoot 2.124261 14.673764 -18.054612
LeftToeBase 10.088429 -0.000000 -0.000000
Spine 77.650125 -2.652244 -8.218637
RightShoulder -18.694260 -60.182261 -22.588058
RightArm -16.208002 -4.145152 82.638371
RightForeArm 8.218499 -0.000000 5.449238
RightHand -12.940093 0.000000 44.863776
RightHandThumb1 -24.326973 -0.000000 -32.862282
LeftShoulder -94.037381 63.706180 -54.105620
LeftArm 8.770337 0.853116 -82.172956
LeftForeArm 36.540455 -0.000000 -4.144621
LeftHand -14.553438 -0.000000 -52.804015
LeftHandThumb1 -26.253704 0.000000 33.147579
Head 7.022794 17.206572 -2.325647
654
root 2.825326 37.074678 -1.908588 32.664508 -2.021108 0.903722
RightUpLeg -42.582155 0.165095 -3.953111
RightLeg 4.897952 -0.000000 -0.000000
RightFoot -2.776689 -16.026899 14.948559
RightToeBase 12.185446 -0.000000 -0.000000
LeftUpLeg -44.294960 2.179510 3.057834
LeftLeg 5.783248 -0.000000 -0.000000
LeftFoot 2.298556 14.562448 -17.974692
LeftToeBase 10.062460 -0.000000 -0.000000
Spine 77.595664 -2.674419 -8.234491
RightShoulder -18.599877 -60.127168 -22.695891
RightArm -16.314440 -4.079583 82.575660
RightForeArm 8.110684 -0.000000 5.395830
RightHand -12.897728 0.000000 44.916537
RightHandThumb1 -24.326973 -0.000000 -32.862282
LeftShoulder -93.826526 63.693221 -53.913870
LeftArm 8.563071 0.768597 -82.111757
LeftForeArm 36.690905 -0.000000 -4.138527
LeftHand -14.533693 -0.000000 -52.832336
LeftHandThumb1 -26.253704 0.000000 33.147579
Head 6.962782 17.194894 -2.401796
655
root 2.801029 37.080244 -1.898390 32.400428 -1.997906 0.880122
RightUpLeg -42.155749 0.171789 -3.871474
RightLeg 4.609322 -0.000000 -0.000000
RightFoot -2.645993 -16.006302 14.909842
RightToeBase 12.248704 -0.000000 -0.000000
LeftUpLeg -43.877609 2.241703 3.085166
LeftLeg 5.505363 -0.000000 -0.000000
LeftFoot 2.428517 14.507678 -18.002412
LeftToeBase 10.114460 -0.000000 -0.000000
Spine 77.490167 -2.754714 -8.250750
RightShoulder -18.400493 -60.204179 -22.927773
RightArm -16.331723 -4.066721 82.580019
RightForeArm 8.123523 -0.000000 5.351860
RightHand -12.854359 0.000000 44.754784
RightHandThumb1 -24.326973 -0.000000 -32.862282
LeftShoulder -94.016527 63.733747 -54.146293
LeftArm 8.522571 0.703253 -82.097900
LeftForeArm 36.639211 -0.000000 -4.184076
LeftHand -14.487582 -0.000000 -52.803173
LeftHandThumb1 -26.253704 0.000000 33.147579
Head 7.055693 17.228271 -2.534700
656
root 2.777317 37.085758 -1.888619 32.127888 -1.953815 0.877870
RightUpLeg -41.720027 0.112510 -3.767228
RightLeg 4.321678 -0.000000 -0.000000
RightFoot -2.484377 -15.969426 14.804088
RightToeBase 12.128472 -0.000000 -0.000000
LeftUpLeg -43.478133 2.262458 3.117655
LeftLeg 5.269642 -0.000000 -0.000000
LeftFoot 2.512378 14.473801 -18.117681
LeftToeBase 10.247843 -0.000000 -0.000000
Spine 77.468034 -2.768360 -8.186139
RightShoulder -18.627182 -60.194867 -22.666548
RightArm -16.386823 -4.039003 82.429867
RightForeArm 8.105271 -0.000000 5.328949
RightHand -12.852205 0.000000 44.638151
RightHandThumb1 -24.326973 -0.000000 -32.862282
LeftShoulder -94.011820 63.722091 -54.091505
LeftArm 8.490580 0.718030 -82.000852
LeftForeArm 36.649889 0.000000 -4.173858
LeftHand -14.503058 0.000000 -52.782208
LeftHandThumb1 -26.253704 0.000000 33.147579
Head 6.953068 17.176454 -2.452391
